<svg xmlns="http://www.w3.org/2000/svg" viewBox="0 0 1024 1024"><defs><style>.cls-1{fill:#76b943}</style></defs><g><path class="cls-1" d="M784,279.9V483.73c0,65.1-8.46,100.69-29.15,122.74-16.32,17.43-40.46,25.86-74.36,25.86l-102.35,0-.24,111.74H681.18C795.34,744.1,912,719.41,912,536.36V279.9Z"/><path class="cls-1" d="M342.82,279.9C228.66,279.9,112,304.59,112,487.64V744.1H240V540.27c0-65.1,8.46-100.69,29.15-122.74,16.32-17.43,40.46-25.86,74.36-25.86l102.35,0,.24-111.74Z"/><rect class="cls-1" x="446.08" y="279.9" width="131.84" height="464.2"/><path d="M780,275.9V483.73c0,64-8.13,98.76-28.07,120-15.49,16.55-38.86,24.6-71.44,24.6l-98.59,0V275.9H342.82c-49.71,0-112.87,4.08-160.44,35.9-23.59,15.77-41.76,37.48-54,64.5C114.85,406.11,108,443.57,108,487.64V748.1H244V540.27c0-64,8.13-98.76,28.07-120,15.49-16.55,38.86-24.6,71.44-24.6l98.59,0V748.1h239.1c49.71,0,112.87-4.08,160.44-35.9,23.59-15.77,41.76-37.48,54-64.5C909.15,617.89,916,580.43,916,536.36V275.9ZM441.85,387.64l-98.36,0c-34.92,0-60.2,8.88-77.27,27.13C244.74,437.68,236,474,236,540.27V740.1H116V487.64c0-82,23.17-137.31,70.82-169.19,45.78-30.62,107.42-34.55,156-34.55h99.25Zm8.23,352.46V283.9H573.92V740.1ZM908,536.36c0,82-23.17,137.31-70.82,169.19-45.79,30.62-107.42,34.55-156,34.55H581.93l.22-103.74,98.36,0c34.92,0,60.2-8.88,77.28-27.13C779.26,586.32,788,550,788,483.73V283.9H908Z"/></g></svg>
